{"title":"Undergrads Complete Series (PSP, iPod, Zune)","uid":5742377,"size":1006491904,"categoryP":"video","categoryS":"handheld","magnet":"?xt=urn:btih:8d8ea18cdfb8147b02178cbc2bf3181622efa9ab&amp;dn=Undergrads+Complete+Series+%28PSP%2C+iPod%2C+Zune%29&amp;tr=udp%3A%2F%2Ftracker.openbittorrent.com%3A80&amp;tr=udp%3A%2F%2Fopen.demonii.com%3A1337&amp;tr=udp%3A%2F%2Ftracker.coppersurfer.tk%3A6969&amp;tr=udp%3A%2F%2Fexodus.desync.com%3A6969","seeders":0,"leechers":0,"uploader":"The_Day_Walker","files":-1,"time":1281080040,"description":"Source: &lt;a href=&quot; http://thepiratebay.se/torrent/5139841/Undergrads_Complete_Series_DvDrip-McTav/&quot; rel=&quot;nofollow&quot; target=&quot;_NEW&quot;&gt; http://thepiratebay.se/torrent/5139841/Undergrads_Complete_Series_DvDrip-McTav/&lt;/a&gt;\n\nEncoded For PSP, iPod, and Zune\n\nEnjoy and Please help seed. =)\n\nShow info - The misadventures of a group of childhood friends who keep in touch even while they go to separate colleges.\n\nVideo Specs: \nFormat                           : MPEG-4\nCodec ID                         : M4V \nFile size                        : 73.8 MiB\nDuration                         : 21mn 35s\nOverall bit rate                 : 478 Kbps\nMovie name                       : Undergrads S01E01 Party\nEncoded date                     : 2010\nWriting application              : Lavf52.33.0\n\nVideo\nID                               : 1\nFormat                           : AVC\nFormat/Info                      : Advanced Video Codec\nFormat profile                   : &lt;a class=&quot;__cf_email__&quot; href=&quot;/cdn-cgi/l/email-protection&quot; data-cfemail=&quot;f4b6958791989d9a91b4b8c5dac7&quot;&gt;[email&amp;#160;protected]&lt;/a&gt;&lt;script data-cfhash='f9e31' type=&quot;text/javascript&quot;&gt;\n/* &lt;![CDATA[ */!function(){try{var t=&quot;currentScript&quot;in document?document.currentScript:function(){for(var t=document.getElementsByTagName(&quot;script&quot;),e=t.length;e--;)if(t[e].getAttribute(&quot;data-cfhash&quot;))return t[e]}();if(t&amp;&amp;t.previousSibling){var e,r,n,i,c=t.previousSibling,a=c.getAttribute(&quot;data-cfemail&quot;);if(a){for(e=&quot;&quot;,r=parseInt(a.substr(0,2),16),n=2;a.length-n;n+=2)i=parseInt(a.substr(n,2),16)^r,e+=String.fromCharCode(i);e=document.createTextNode(e),c.parentNode.replaceChild(e,c)}t.parentNode.removeChild(t);}}catch(u){}}()/* ]]&gt; */&lt;/script&gt;\nFormat settings, CABAC           : No\nFormat settings, ReFrames        : 1 frame\nCodec ID                         : avc1\nCodec ID/Info                    : Advanced Video Coding\nDuration                         : 21mn 35s\nBit rate mode                    : Variable\nBit rate                         : 345 Kbps\nWidth                            : 320 pixels\nHeight                           : 240 pixels\nDisplay aspect ratio             : 4:3\nFrame rate mode                  : Constant\nFrame rate                       : 29.970 fps\nColor space                      : YUV\nChroma subsampling               : 4:2:0\nBit depth                        : 8 bits\nScan type                        : Progressive\nBits/(Pixel*Frame)               : 0.150\nStream size                      : 53.3 MiB (72%)\n\nAudio\nID                               : 2\nFormat                           : AAC\nFormat/Info                      : Advanced Audio Codec\nFormat version                   : Version 4\nFormat profile                   : LC\nFormat settings, SBR             : No\nCodec ID                         : 40\nDuration                         : 21mn 35s\nBit rate mode                    : Variable\nBit rate                         : 128 Kbps\nChannel(s)                       : 2 channels\nChannel positions                : Front: L R\nSampling rate                    : 48.0 KHz\nStream size                      : 19.8 MiB (27%)\n\n","torrent":{"xt":"urn:btih:8d8ea18cdfb8147b02178cbc2bf3181622efa9ab","amp;dn":"Undergrads+Complete+Series+%28PSP%2C+iPod%2C+Zune%29","amp;tr":["udp%3A%2F%2Ftracker.openbittorrent.com%3A80","udp%3A%2F%2Fopen.demonii.com%3A1337","udp%3A%2F%2Ftracker.coppersurfer.tk%3A6969","udp%3A%2F%2Fexodus.desync.com%3A6969"],"infoHash":"8d8ea18cdfb8147b02178cbc2bf3181622efa9ab","infoHashBuffer":{"type":"Buffer","data":[141,142,161,140,223,184,20,123,2,23,140,188,43,243,24,22,34,239,169,171]},"announce":[],"urlList":[]}}